<svg xmlns="http://www.w3.org/2000/svg" viewBox="-500 -500 1000 1000">
    <path fill="none" stroke="black" stroke-width="1px" d="M 0, 0
M 0, 0
C 46.74298127997957, 14.713555848154902, 85.2864441518451, 53.25701872002043, 100, 100
C 103.98308212499796, 112.65371437922998, 106.34211846403754, 125.76796188106096, 110.18169219032475, 138.46595795941974
C 114.02126591661198, 151.16395403777858, 119.5113330905555, 163.55386975410656, 128.01864829371735, 173.73262305889114
C 136.52596349570933, 183.9113763630297, 147.98825883836554, 191.55593761976533, 160.62434646797186, 195.59459088409318
C 173.26043409757744, 199.63324414842035, 186.73420071113196, 199.99999999951712, 200, 200
L 300, 200
C 320.7535150270976, 200, 341.98431088242523, 200.41207695750307, 361.6828606798336, 193.8794265107862
C 371.5321355785136, 190.61310128744233, 380.90626456517424, 185.4565616276282, 388.0596280237954, 177.93948189389627
C 395.21299148241667, 170.42240216016438, 399.9999999999938, 160.37675751352126, 400, 150
C 400, 139.6232424864512, 395.21299148241616, 129.57759783977855, 388.0596280237805, 122.06051810602243
C 380.9062645651448, 114.54343837226631, 371.5321355784624, 109.38689871243287, 361.6828606797582, 106.12057348907445
C 341.98431088236424, 99.58792304240865, 320.7535150270679, 99.99999999995607, 300, 100
L 200, 100
C 193.4371908809129, 100, 186.75705676178276, 99.79043331109337, 180.5549319798823, 97.64471391580683
C 174.3528071979826, 95.49899452052048, 168.8354240629713, 91.47067734962809, 164.84014878344945, 86.26412004422906
C 160.84487350474024, 81.05756273853021, 158.3813580368056, 74.84639065540688, 156.43433925378574, 68.57904820515263
C 154.48732047076584, 62.311705754898355, 152.94769111555428, 55.86358086986732, 150, 50
C 144.6807716757268, 39.418930202595895, 135.31267867992963, 31.540386166663072, 126.24896163592433, 23.91790222968454
C 117.18524459192632, 16.295418292710394, 108.37416348129942, 8.374163481301284, 100, 0
L 0, -100
C -13.414186460227064, -113.41418646022707, -25.82340502909598, -128.20883551128674, -33.31277804521975, -145.63841062386007
C -40.802151061262165, -163.0679857363744, -43.790588285418515, -182.0744873731594, -50, -200
C -56.407578249490165, -218.49758561635966, -66.69393186767803, -235.64150831333941, -80, -250"></path>
</svg>
